<svg width="370" height="125" viewBox="0 0 370 125" fill="none" xmlns="http://www.w3.org/2000/svg">
<rect x="19" y="20" width="88" height="83" stroke="#FF7B93" stroke-opacity="0.85" stroke-width="2"/>
<g filter="url(#filter0_ddd_330_237)">
<path d="M56.673 60.9341C50.705 63.1097 46.4912 68.4108 46.4912 74.605C46.4912 82.7383 53.7564 89.3318 62.7185 89.3318C71.6805 89.3318 78.9457 82.7383 78.9457 74.605C78.9457 69.1266 75.6496 64.347 70.759 61.8102" stroke="white" stroke-linecap="round"/>
<path d="M58.2261 52.8563C54.7912 51.3152 52.4307 48.1153 52.4307 44.4176C52.4307 39.2164 57.1011 35 62.8625 35C68.6238 35 73.2943 39.2164 73.2943 44.4176C73.2943 46.2234 72.7313 47.9106 71.7551 49.3437" stroke="white" stroke-linecap="round"/>
<path d="M42.0722 56.4433C59.0762 55.8666 69.2382 54.8496 72.4986 48.0399" stroke="white" stroke-linecap="round"/>
<path d="M42 56.457L83.4374 56.457" stroke="white" stroke-linecap="round"/>
<path d="M56.6325 61.0072C63.5868 58.3268 71.8752 58.1737 83.4041 56.5852" stroke="white" stroke-linecap="round"/>
</g>
<path d="M147.734 24.3438C153.255 24.3438 158.125 25.9062 162.344 29.0312C168.385 33.5104 171.406 40.0469 171.406 48.6406C171.406 55.8802 168.984 61.7917 164.141 66.375C159.557 70.6458 154.01 72.7812 147.5 72.7812C141.823 72.7812 136.823 71.1146 132.5 67.7812C126.615 63.1458 123.672 56.6615 123.672 48.3281C123.672 41.1406 126.12 35.2812 131.016 30.75C135.599 26.4792 141.172 24.3438 147.734 24.3438ZM147.734 70.5938C157.005 70.5417 161.667 63.0938 161.719 48.25C161.667 33.875 156.927 26.6354 147.5 26.5312C138.073 26.5833 133.333 33.9531 133.281 48.6406C133.333 63.1719 138.151 70.4896 147.734 70.5938ZM242.084 25.125V27.1562H235.834V69.9688H240.053C240.314 69.9688 240.574 69.9948 240.834 70.0469C241.668 70.2031 242.084 70.8542 242.084 72H221.537V69.9688H227.787V32.4688L210.287 72.5469H208.725L191.85 37.9375V69.9688H195.991C196.98 70.0729 197.683 70.75 198.1 72H182.397V69.9688H188.647V27.1562H182.397V25.125H194.741L212.162 61.5312L227.787 25.125H242.084ZM289.481 39.5781H287.684L286.278 35.2031C286.226 35.0469 286.174 34.8646 286.122 34.6562C284.559 29.6562 281.721 27.1562 277.606 27.1562H266.512V46.6875H282.216V48.9531H266.512V69.9688H277.606C278.231 69.9688 278.83 69.9167 279.403 69.8125C282.58 69.1875 284.872 66.5573 286.278 61.9219L287.684 57.5469H289.481L289.169 72H251.903V69.9688H258.153V27.1562H251.903V25.125H289.169L289.481 39.5781ZM334.378 27.1562V25.125H350.316V27.1562H344.066V71.6094L340.081 72.3906L309.691 35.2812V69.9688H314.222C315.211 70.0729 315.915 70.75 316.331 72H300.238V69.9688H306.488V27.1562H300.238V25.125H312.034L340.863 60.2812V27.1562H334.378Z" fill="url(#paint0_linear_330_237)"/>
<path d="M136.164 92.308C134.503 92.308 133.672 90.8287 133.672 87.87C133.672 86.5167 133.859 85.2007 134.232 83.922C134.605 82.634 135.123 81.5887 135.786 80.786C136.458 79.974 137.223 79.568 138.082 79.568C138.623 79.568 139.113 79.7547 139.552 80.128C139.683 80.2587 139.748 80.38 139.748 80.492C139.748 80.5573 139.725 80.6087 139.678 80.646C139.631 80.6833 139.566 80.702 139.482 80.702C139.379 80.702 139.263 80.6693 139.132 80.604C138.721 80.3707 138.301 80.254 137.872 80.254C137.181 80.254 136.565 80.6833 136.024 81.542C135.483 82.3913 135.058 83.3993 134.75 84.566C134.451 85.7327 134.302 86.736 134.302 87.576C134.302 88.976 134.461 90.0073 134.778 90.67C135.095 91.3327 135.599 91.664 136.29 91.664C137.009 91.664 137.667 91.3747 138.264 90.796C138.871 90.208 139.379 89.4567 139.79 88.542C140.201 87.618 140.513 86.652 140.728 85.644C140.943 84.692 141.05 83.7587 141.05 82.844C141.05 81.7147 140.873 80.7907 140.518 80.072C140.247 79.5493 139.911 79.232 139.51 79.12C139.426 79.092 139.281 79.0593 139.076 79.022C138.805 78.9753 138.595 78.9287 138.446 78.882C138.297 78.826 138.222 78.7513 138.222 78.658C138.222 78.4807 138.339 78.378 138.572 78.35C139.804 78.35 140.635 78.812 141.064 79.736C141.493 80.66 141.708 81.8313 141.708 83.25C141.708 84.258 141.573 85.2987 141.302 86.372C141.031 87.436 140.649 88.4207 140.154 89.326C139.641 90.2593 139.039 90.992 138.348 91.524C137.667 92.0467 136.939 92.308 136.164 92.308ZM143.712 92.224C143.581 92.224 143.516 92.14 143.516 91.972L143.838 90.306L144.426 87.352C144.687 86.0453 144.818 85.392 144.818 85.392C144.855 85.1867 144.907 85.0373 144.972 84.944C145.037 84.8507 145.121 84.804 145.224 84.804C145.317 84.804 145.387 84.8273 145.434 84.874C145.49 84.9207 145.518 85.0047 145.518 85.126C145.518 85.3407 145.453 85.6673 145.322 86.106C145.257 86.3207 145.21 86.5027 145.182 86.652C145.145 86.7827 145.103 86.932 145.056 87.1C145.009 87.2587 144.958 87.4453 144.902 87.66C145.154 87.0907 145.392 86.638 145.616 86.302C145.84 85.9567 146.12 85.63 146.456 85.322C146.773 85.0513 147.091 84.916 147.408 84.916C147.641 84.916 147.837 84.9673 147.996 85.07C148.155 85.1633 148.234 85.2753 148.234 85.406C148.234 85.5087 148.197 85.5927 148.122 85.658C148.047 85.714 147.954 85.742 147.842 85.742C147.758 85.742 147.679 85.7233 147.604 85.686C147.548 85.6393 147.473 85.616 147.38 85.616C147.259 85.616 147.081 85.7 146.848 85.868C146.409 86.1853 146.036 86.6053 145.728 87.128C145.429 87.6413 145.191 88.164 145.014 88.696C144.846 89.2187 144.664 89.8533 144.468 90.6L144.342 91.118C144.202 91.8553 143.992 92.224 143.712 92.224ZM149.57 97.74C149.113 97.74 148.735 97.586 148.436 97.278C148.138 96.97 147.988 96.5687 147.988 96.074C147.988 95.6633 148.091 95.29 148.296 94.954C148.492 94.618 148.726 94.324 148.996 94.072C149.276 93.8293 149.64 93.5447 150.088 93.218C150.144 93.1807 150.196 93.1433 150.242 93.106C150.289 93.078 150.326 93.0547 150.354 93.036C150.756 92.7467 151.162 92.434 151.572 92.098C151.638 91.7993 151.731 91.3747 151.852 90.824C151.974 90.2733 152.072 89.858 152.146 89.578C151.894 90.306 151.586 90.908 151.222 91.384C150.868 91.8507 150.508 92.084 150.144 92.084C149.799 92.084 149.528 91.9627 149.332 91.72C149.146 91.468 149.052 91.1227 149.052 90.684C149.052 89.8627 149.202 89.0087 149.5 88.122C149.808 87.2353 150.224 86.4747 150.746 85.84C151.26 85.196 151.838 84.874 152.482 84.874C152.781 84.874 153.066 84.9487 153.336 85.098C153.392 85.07 153.453 85.056 153.518 85.056C153.668 85.056 153.742 85.1307 153.742 85.28C153.742 85.4107 153.705 85.5973 153.63 85.84C153.556 86.0827 153.509 86.232 153.49 86.288C153.369 86.7267 153.168 87.562 152.888 88.794L152.272 91.636C152.366 91.5707 152.566 91.4073 152.874 91.146C152.912 91.118 152.982 91.062 153.084 90.978C153.187 90.8847 153.271 90.8193 153.336 90.782C153.411 90.7353 153.472 90.712 153.518 90.712C153.686 90.712 153.77 90.7913 153.77 90.95C153.77 91.062 153.733 91.1553 153.658 91.23C153.173 91.6033 152.683 91.9673 152.188 92.322L151.782 94.38C151.512 95.7707 151.162 96.704 150.732 97.18C150.396 97.5533 150.009 97.74 149.57 97.74ZM150.2 91.44C150.406 91.44 150.634 91.3047 150.886 91.034C151.138 90.7633 151.381 90.3993 151.614 89.942C151.857 89.4753 152.058 88.976 152.216 88.444L152.762 86.54L153.014 85.616C152.884 85.4947 152.702 85.434 152.468 85.434C152.067 85.434 151.647 85.7 151.208 86.232C150.779 86.764 150.415 87.436 150.116 88.248C149.827 89.0507 149.682 89.7833 149.682 90.446C149.682 91.1087 149.855 91.44 150.2 91.44ZM149.542 97.04C149.869 97.04 150.14 96.9093 150.354 96.648C150.569 96.3867 150.737 96.0413 150.858 95.612C150.989 95.192 151.12 94.6413 151.25 93.96L151.46 92.854C151.124 93.134 150.788 93.4 150.452 93.652C149.939 94.0347 149.514 94.4173 149.178 94.8C148.842 95.192 148.674 95.64 148.674 96.144C148.674 96.4427 148.749 96.6667 148.898 96.816C149.057 96.9653 149.272 97.04 149.542 97.04ZM160.045 92.028C159.83 92.028 159.629 91.916 159.443 91.692C159.265 91.4587 159.177 91.2113 159.177 90.95C159.177 90.3713 159.331 89.3913 159.639 88.01C159.405 88.514 159.102 89.032 158.729 89.564C158.365 90.0867 158.005 90.5487 157.651 90.95C157.296 91.3513 157.035 91.6127 156.867 91.734C156.633 91.9113 156.377 92 156.097 92C155.565 92 155.299 91.664 155.299 90.992C155.299 90.3387 155.546 89.5267 156.041 88.556C156.535 87.576 157.123 86.7267 157.805 86.008C158.486 85.2987 159.037 84.944 159.457 84.944C159.886 84.944 160.129 85.1307 160.185 85.504C160.213 85.616 160.227 85.7373 160.227 85.868C160.273 85.84 160.325 85.826 160.381 85.826C160.595 85.826 160.703 85.9287 160.703 86.134V86.19L160.535 86.806C160.404 87.2727 160.269 87.9633 160.129 88.878C159.989 89.7927 159.919 90.5533 159.919 91.16L160.059 91.244C160.283 91.384 160.395 91.524 160.395 91.664C160.395 91.7573 160.362 91.8413 160.297 91.916C160.231 91.9907 160.147 92.028 160.045 92.028ZM156.209 91.272C156.311 91.272 156.395 91.2393 156.461 91.174C157.413 90.362 158.257 89.2373 158.995 87.8C159.312 87.2027 159.508 86.8107 159.583 86.624C159.667 86.4373 159.709 86.2553 159.709 86.078C159.709 85.9847 159.685 85.9007 159.639 85.826C159.592 85.7513 159.531 85.714 159.457 85.714C159.363 85.714 159.242 85.756 159.093 85.84C158.719 86.036 158.276 86.4513 157.763 87.086C157.259 87.7207 156.843 88.3927 156.517 89.102C156.171 89.8207 155.999 90.46 155.999 91.02C155.999 91.188 156.069 91.272 156.209 91.272ZM166.418 92.084C166.268 92.084 166.161 92.056 166.096 92C166.03 91.944 166.007 91.846 166.026 91.706L166.712 87.618C166.796 87.114 166.838 86.7267 166.838 86.456C166.838 86.008 166.712 85.784 166.46 85.784C166.152 85.784 165.727 86.3207 165.186 87.394C164.654 88.458 164.103 89.662 163.534 91.006L163.338 91.454C163.17 91.818 163.002 92 162.834 92C162.74 92 162.68 91.9813 162.652 91.944C162.633 91.8973 162.624 91.804 162.624 91.664C162.624 91.524 162.806 90.446 163.17 88.43C163.543 86.414 163.758 85.3547 163.814 85.252C163.87 85.14 163.916 85.07 163.954 85.042C164 85.014 164.084 85 164.206 85C164.318 85 164.406 85.042 164.472 85.126C164.546 85.21 164.584 85.294 164.584 85.378C164.584 85.434 164.537 85.616 164.444 85.924C164.164 86.876 163.944 87.8 163.786 88.696L163.646 89.522C163.804 89.186 163.921 88.9247 163.996 88.738C164.257 88.1313 164.495 87.5993 164.71 87.142C164.934 86.6847 165.181 86.26 165.452 85.868C165.862 85.28 166.245 84.986 166.6 84.986C167.225 84.986 167.538 85.49 167.538 86.498C167.538 86.7127 167.51 86.988 167.454 87.324C167.398 87.66 167.337 88.0053 167.272 88.36C167.141 89.0413 167.057 89.508 167.02 89.76L166.922 90.404C166.838 90.9827 166.763 91.4073 166.698 91.678C166.632 91.9487 166.539 92.084 166.418 92.084ZM169.922 92.14C169.604 92.14 169.446 91.8833 169.446 91.37C169.446 91.2393 169.469 91.1227 169.516 91.02C169.562 90.8613 169.604 90.6793 169.642 90.474L169.852 89.536L170.132 88.304C170.225 87.8467 170.337 87.3333 170.468 86.764C170.486 86.708 170.505 86.6147 170.524 86.484C170.617 86.0827 170.664 85.8493 170.664 85.784V85.644C170.664 85.5693 170.631 85.4153 170.566 85.182C170.566 85.07 170.603 84.9673 170.678 84.874C170.762 84.7807 170.86 84.734 170.972 84.734C171.074 84.734 171.163 84.804 171.238 84.944C171.312 85.084 171.35 85.238 171.35 85.406C171.35 85.5927 171.135 86.6007 170.706 88.43C170.276 90.2593 170.062 91.23 170.062 91.342C170.062 91.4447 170.108 91.496 170.202 91.496C170.248 91.496 170.332 91.4353 170.454 91.314C170.566 91.202 170.659 91.146 170.734 91.146C170.883 91.146 170.958 91.2393 170.958 91.426C170.958 91.538 170.892 91.65 170.762 91.762C170.631 91.874 170.482 91.9627 170.314 92.028C170.146 92.1027 170.015 92.14 169.922 92.14ZM171.336 83.684C171.186 83.684 171.074 83.6653 171 83.628H170.944C170.673 83.628 170.538 83.4693 170.538 83.152C170.538 82.9933 170.603 82.8487 170.734 82.718C170.874 82.5873 171.023 82.522 171.182 82.522C171.34 82.522 171.49 82.578 171.63 82.69C171.788 82.8487 171.868 83.0027 171.868 83.152C171.868 83.292 171.812 83.418 171.7 83.53C171.597 83.6327 171.476 83.684 171.336 83.684ZM175.674 92.154C175.366 92.154 175.067 92.1027 174.778 92C174.535 91.9067 174.335 91.8367 174.176 91.79C174.017 91.734 173.877 91.706 173.756 91.706C173.616 91.706 173.443 91.7667 173.238 91.888C173.023 92.0187 172.879 92.084 172.804 92.084C172.636 92.084 172.552 92.0093 172.552 91.86C172.552 91.776 172.58 91.6873 172.636 91.594L173.868 89.97C174.456 89.1953 175.063 88.3973 175.688 87.576C176.323 86.7453 176.822 86.0967 177.186 85.63L175.506 85.56L174.33 85.63C173.91 85.63 173.7 85.5133 173.7 85.28C173.7 85.056 173.859 84.944 174.176 84.944L174.764 84.986L177.774 85C178.017 85 178.143 85.0467 178.152 85.14V85.266C178.152 85.322 178.11 85.4153 178.026 85.546C177.942 85.6673 177.844 85.798 177.732 85.938L177.438 86.302L175.73 88.584C175.151 89.3307 174.507 90.1893 173.798 91.16C174.022 91.16 174.209 91.1787 174.358 91.216C174.507 91.244 174.675 91.2953 174.862 91.37C175.105 91.482 175.333 91.538 175.548 91.538C176.453 91.538 176.906 91.2813 176.906 90.768C176.906 90.684 176.864 90.5813 176.78 90.46C176.771 90.4413 176.747 90.3993 176.71 90.334C176.673 90.2593 176.654 90.1847 176.654 90.11C176.654 90.026 176.691 89.942 176.766 89.858C176.841 89.7647 176.929 89.718 177.032 89.718C177.191 89.718 177.321 89.8253 177.424 90.04C177.527 90.2547 177.578 90.4647 177.578 90.67C177.578 91.1367 177.41 91.5007 177.074 91.762C176.747 92.0233 176.281 92.154 175.674 92.154ZM183.968 92.028C183.753 92.028 183.552 91.916 183.366 91.692C183.188 91.4587 183.1 91.2113 183.1 90.95C183.1 90.3713 183.254 89.3913 183.562 88.01C183.328 88.514 183.025 89.032 182.652 89.564C182.288 90.0867 181.928 90.5487 181.574 90.95C181.219 91.3513 180.958 91.6127 180.79 91.734C180.556 91.9113 180.3 92 180.02 92C179.488 92 179.222 91.664 179.222 90.992C179.222 90.3387 179.469 89.5267 179.964 88.556C180.458 87.576 181.046 86.7267 181.728 86.008C182.409 85.2987 182.96 84.944 183.38 84.944C183.809 84.944 184.052 85.1307 184.108 85.504C184.136 85.616 184.15 85.7373 184.15 85.868C184.196 85.84 184.248 85.826 184.304 85.826C184.518 85.826 184.626 85.9287 184.626 86.134V86.19L184.458 86.806C184.327 87.2727 184.192 87.9633 184.052 88.878C183.912 89.7927 183.842 90.5533 183.842 91.16L183.982 91.244C184.206 91.384 184.318 91.524 184.318 91.664C184.318 91.7573 184.285 91.8413 184.22 91.916C184.154 91.9907 184.07 92.028 183.968 92.028ZM180.132 91.272C180.234 91.272 180.318 91.2393 180.384 91.174C181.336 90.362 182.18 89.2373 182.918 87.8C183.235 87.2027 183.431 86.8107 183.506 86.624C183.59 86.4373 183.632 86.2553 183.632 86.078C183.632 85.9847 183.608 85.9007 183.562 85.826C183.515 85.7513 183.454 85.714 183.38 85.714C183.286 85.714 183.165 85.756 183.016 85.84C182.642 86.036 182.199 86.4513 181.686 87.086C181.182 87.7207 180.766 88.3927 180.44 89.102C180.094 89.8207 179.922 90.46 179.922 91.02C179.922 91.188 179.992 91.272 180.132 91.272ZM187.793 92.056C187.466 92.056 187.219 91.972 187.051 91.804C186.892 91.636 186.813 91.3327 186.813 90.894C186.813 90.6513 186.841 90.3713 186.897 90.054L187.023 89.256L187.177 88.598L187.261 88.22L187.443 87.45C187.461 87.3287 187.503 87.1327 187.569 86.862L187.639 86.582L187.765 85.98L187.849 85.56C187.485 85.56 187.149 85.5833 186.841 85.63C186.654 85.602 186.561 85.5227 186.561 85.392C186.561 85.2987 186.598 85.21 186.673 85.126C186.747 85.042 186.836 84.9953 186.939 84.986L187.947 85.014C187.947 85.014 187.97 84.8973 188.017 84.664C188.035 84.4773 188.073 84.2627 188.129 84.02C188.185 83.7773 188.255 83.5627 188.339 83.376C188.423 83.1707 188.544 83.068 188.703 83.068C188.852 83.068 188.927 83.152 188.927 83.32V83.404C188.889 83.5907 188.857 83.726 188.829 83.81L188.591 85H189.599C189.953 85 190.173 85.028 190.257 85.084C190.331 85.14 190.369 85.21 190.369 85.294C190.369 85.4433 190.299 85.5413 190.159 85.588C190.028 85.6253 189.799 85.644 189.473 85.644C189.174 85.644 188.843 85.63 188.479 85.602C188.423 85.91 188.231 86.764 187.905 88.164C187.606 89.4333 187.457 90.236 187.457 90.572C187.457 90.936 187.499 91.174 187.583 91.286C187.629 91.3607 187.727 91.398 187.877 91.398C188.007 91.398 188.119 91.3653 188.213 91.3C188.315 91.2253 188.418 91.1273 188.521 91.006C188.623 90.8753 188.712 90.7773 188.787 90.712C188.861 90.6467 188.941 90.614 189.025 90.614C189.211 90.614 189.305 90.7073 189.305 90.894C189.305 90.9873 189.211 91.1413 189.025 91.356C188.838 91.5707 188.661 91.7433 188.493 91.874C188.343 91.9953 188.11 92.056 187.793 92.056ZM196.086 92.028C195.872 92.028 195.671 91.916 195.484 91.692C195.307 91.4587 195.218 91.2113 195.218 90.95C195.218 90.3713 195.372 89.3913 195.68 88.01C195.447 88.514 195.144 89.032 194.77 89.564C194.406 90.0867 194.047 90.5487 193.692 90.95C193.338 91.3513 193.076 91.6127 192.908 91.734C192.675 91.9113 192.418 92 192.138 92C191.606 92 191.34 91.664 191.34 90.992C191.34 90.3387 191.588 89.5267 192.082 88.556C192.577 87.576 193.165 86.7267 193.846 86.008C194.528 85.2987 195.078 84.944 195.498 84.944C195.928 84.944 196.17 85.1307 196.226 85.504C196.254 85.616 196.268 85.7373 196.268 85.868C196.315 85.84 196.366 85.826 196.422 85.826C196.637 85.826 196.744 85.9287 196.744 86.134V86.19L196.576 86.806C196.446 87.2727 196.31 87.9633 196.17 88.878C196.03 89.7927 195.96 90.5533 195.96 91.16L196.1 91.244C196.324 91.384 196.436 91.524 196.436 91.664C196.436 91.7573 196.404 91.8413 196.338 91.916C196.273 91.9907 196.189 92.028 196.086 92.028ZM192.25 91.272C192.353 91.272 192.437 91.2393 192.502 91.174C193.454 90.362 194.299 89.2373 195.036 87.8C195.354 87.2027 195.55 86.8107 195.624 86.624C195.708 86.4373 195.75 86.2553 195.75 86.078C195.75 85.9847 195.727 85.9007 195.68 85.826C195.634 85.7513 195.573 85.714 195.498 85.714C195.405 85.714 195.284 85.756 195.134 85.84C194.761 86.036 194.318 86.4513 193.804 87.086C193.3 87.7207 192.885 88.3927 192.558 89.102C192.213 89.8207 192.04 90.46 192.04 91.02C192.04 91.188 192.11 91.272 192.25 91.272ZM202.078 97.74C201.938 97.74 201.859 97.6467 201.84 97.46C202.12 96.396 202.363 95.332 202.568 94.268L202.988 92.07L203.408 89.872L203.52 89.284C203.894 87.3427 204.146 86.0453 204.276 85.392V85.084C204.276 84.9907 204.318 84.902 204.402 84.818C204.486 84.734 204.584 84.692 204.696 84.692C204.799 84.692 204.878 84.734 204.934 84.818C204.99 84.8927 205.018 84.9767 205.018 85.07C205.018 85.2007 204.995 85.336 204.948 85.476L204.892 85.658C204.874 85.7327 204.864 85.784 204.864 85.812L204.668 86.82C205.34 85.5413 206.059 84.902 206.824 84.902C207.226 84.902 207.515 85.0233 207.692 85.266C207.879 85.4993 207.972 85.854 207.972 86.33C207.972 87.226 207.846 88.1173 207.594 89.004C207.342 89.8907 206.978 90.6373 206.502 91.244C206.017 91.8693 205.438 92.182 204.766 92.182C204.505 92.182 204.295 92.126 204.136 92.014C203.987 91.9113 203.866 91.7293 203.772 91.468L203.604 92.294C203.38 93.3207 203.217 94.0953 203.114 94.618C202.89 95.7567 202.676 96.704 202.47 97.46C202.386 97.6467 202.256 97.74 202.078 97.74ZM204.864 91.524C205.35 91.524 205.802 91.216 206.222 90.6C206.745 89.8067 207.09 88.766 207.258 87.478C207.305 87.0767 207.328 86.7313 207.328 86.442C207.328 85.8353 207.179 85.532 206.88 85.532C206.582 85.532 206.241 85.7467 205.858 86.176C205.336 86.764 204.906 87.4733 204.57 88.304C204.234 89.1253 204.066 89.8393 204.066 90.446C204.066 91.1647 204.332 91.524 204.864 91.524ZM210.856 92.14C210.557 92.14 210.324 92.0933 210.156 92C209.988 91.8973 209.852 91.7433 209.75 91.538C209.554 91.174 209.456 90.7353 209.456 90.222C209.456 89.326 209.591 88.4767 209.862 87.674C210.132 86.862 210.501 86.1807 210.968 85.63C211.416 85.1073 211.906 84.846 212.438 84.846C212.718 84.846 212.937 84.9627 213.096 85.196C213.264 85.42 213.348 85.6953 213.348 86.022C213.348 86.5913 213.198 87.086 212.9 87.506C212.61 87.926 212.218 88.276 211.724 88.556C211.294 88.808 210.772 89.06 210.156 89.312L210.128 90.32C210.128 91.104 210.366 91.496 210.842 91.496C211.038 91.496 211.224 91.4587 211.402 91.384C211.588 91.3093 211.789 91.2067 212.004 91.076C212.256 90.9267 212.433 90.852 212.536 90.852C212.694 90.852 212.774 90.936 212.774 91.104C212.774 91.2253 212.657 91.37 212.424 91.538C212.2 91.706 211.934 91.8507 211.626 91.972C211.318 92.084 211.061 92.14 210.856 92.14ZM210.268 88.64C210.893 88.388 211.369 88.164 211.696 87.968C212.022 87.772 212.27 87.5247 212.438 87.226C212.615 86.9273 212.704 86.5353 212.704 86.05C212.704 85.686 212.55 85.504 212.242 85.504C211.971 85.504 211.654 85.7513 211.29 86.246C210.907 86.7407 210.599 87.3893 210.366 88.192C210.3 88.416 210.268 88.5653 210.268 88.64ZM211.164 83.544C211.052 83.544 210.958 83.474 210.884 83.334C210.809 83.1847 210.772 83.0353 210.772 82.886C210.772 82.6993 210.837 82.5127 210.968 82.326C211.08 82.1673 211.229 82.088 211.416 82.088C211.518 82.088 211.626 82.144 211.738 82.256V82.242C211.887 82.4193 211.962 82.578 211.962 82.718C211.962 82.858 211.859 83.0307 211.654 83.236C211.448 83.4413 211.285 83.544 211.164 83.544ZM213.278 83.432C213.054 83.3573 212.942 83.2033 212.942 82.97C212.942 82.7647 213.021 82.578 213.18 82.41C213.348 82.2327 213.502 82.144 213.642 82.144C213.94 82.144 214.09 82.2887 214.09 82.578C214.09 82.7833 214.015 82.984 213.866 83.18C213.716 83.3667 213.558 83.46 213.39 83.46L213.278 83.432ZM214.989 92.224C214.858 92.224 214.793 92.14 214.793 91.972L215.115 90.306L215.703 87.352C215.964 86.0453 216.095 85.392 216.095 85.392C216.132 85.1867 216.183 85.0373 216.249 84.944C216.314 84.8507 216.398 84.804 216.501 84.804C216.594 84.804 216.664 84.8273 216.711 84.874C216.767 84.9207 216.795 85.0047 216.795 85.126C216.795 85.3407 216.729 85.6673 216.599 86.106C216.533 86.3207 216.487 86.5027 216.459 86.652C216.421 86.7827 216.379 86.932 216.333 87.1C216.286 87.2587 216.235 87.4453 216.179 87.66C216.431 87.0907 216.669 86.638 216.893 86.302C217.117 85.9567 217.397 85.63 217.733 85.322C218.05 85.0513 218.367 84.916 218.685 84.916C218.918 84.916 219.114 84.9673 219.273 85.07C219.431 85.1633 219.511 85.2753 219.511 85.406C219.511 85.5087 219.473 85.5927 219.399 85.658C219.324 85.714 219.231 85.742 219.119 85.742C219.035 85.742 218.955 85.7233 218.881 85.686C218.825 85.6393 218.75 85.616 218.657 85.616C218.535 85.616 218.358 85.7 218.125 85.868C217.686 86.1853 217.313 86.6053 217.005 87.128C216.706 87.6413 216.468 88.164 216.291 88.696C216.123 89.2187 215.941 89.8533 215.745 90.6L215.619 91.118C215.479 91.8553 215.269 92.224 214.989 92.224ZM235.628 92.168C235.507 92.168 235.427 92.1167 235.39 92.014C235.353 91.9113 235.334 91.72 235.334 91.44V90.838C235.334 90.082 235.399 88.0333 235.53 84.692C235.549 83.936 235.572 83.194 235.6 82.466C235.628 81.738 235.647 81.1407 235.656 80.674C235.255 81.57 234.639 82.816 233.808 84.412C232.987 86.008 232.487 86.974 232.31 87.31C231.899 88.0847 231.484 88.8827 231.064 89.704C230.971 89.9 230.854 89.998 230.714 89.998C230.583 89.998 230.49 89.9327 230.434 89.802L229.93 87.478C229.081 83.6793 228.558 81.2993 228.362 80.338C228.147 81.4207 227.923 82.4567 227.69 83.446C227.466 84.426 227.177 85.644 226.822 87.1C226.691 87.6507 226.533 88.318 226.346 89.102C226.159 89.886 225.945 90.81 225.702 91.874C225.599 92.0607 225.469 92.154 225.31 92.154C225.17 92.154 225.091 92.0607 225.072 91.874C225.231 90.9967 225.455 89.914 225.744 88.626C226.033 87.338 226.323 86.0873 226.612 84.874C226.901 83.6513 227.093 82.8347 227.186 82.424L228.04 78.798C228.068 78.7047 228.119 78.6253 228.194 78.56C228.278 78.4947 228.357 78.462 228.432 78.462C228.553 78.462 228.637 78.5413 228.684 78.7C228.843 79.3907 229.225 81.1313 229.832 83.922C230.196 85.742 230.527 87.2727 230.826 88.514C231.265 87.7673 231.806 86.7687 232.45 85.518C233.094 84.2673 233.962 82.564 235.054 80.408C235.334 79.8293 235.605 79.288 235.866 78.784C235.978 78.56 236.113 78.448 236.272 78.448C236.421 78.448 236.496 78.518 236.496 78.658L236.468 79.036C236.207 83.4787 236.057 87.6273 236.02 91.482C236.048 91.5193 236.062 91.5707 236.062 91.636C236.062 91.7573 236.015 91.8787 235.922 92C235.838 92.112 235.74 92.168 235.628 92.168ZM241.01 92.14C240.599 92.14 240.282 91.958 240.058 91.594C239.843 91.23 239.736 90.7773 239.736 90.236C239.736 89.8347 239.759 89.4427 239.806 89.06C239.853 88.668 239.923 88.206 240.016 87.674L240.072 87.31C240.212 86.4327 240.329 85.7513 240.422 85.266C240.441 85.1447 240.459 85.0373 240.478 84.944C240.497 84.8507 240.511 84.7667 240.52 84.692C240.604 84.2533 240.679 83.8987 240.744 83.628C240.791 83.348 240.912 82.7367 241.108 81.794C241.257 81.1313 241.449 80.128 241.682 78.784C241.747 78.6347 241.841 78.56 241.962 78.56C242.205 78.56 242.326 78.6627 242.326 78.868L242.298 78.966C242.074 80.478 241.813 81.906 241.514 83.25C241.178 84.7527 240.931 85.9007 240.772 86.694C241.089 86.1247 241.393 85.6953 241.682 85.406C241.971 85.1073 242.289 84.958 242.634 84.958C242.979 84.958 243.255 85.0933 243.46 85.364C243.675 85.6253 243.782 85.9287 243.782 86.274C243.782 86.9927 243.67 87.814 243.446 88.738C243.231 89.6527 242.947 90.3993 242.592 90.978C242.125 91.7527 241.598 92.14 241.01 92.14ZM241.01 91.426C241.346 91.426 241.682 91.146 242.018 90.586C242.466 89.8673 242.783 88.9387 242.97 87.8C243.017 87.4453 243.04 87.1093 243.04 86.792C243.04 86.4093 243.003 86.1247 242.928 85.938C242.863 85.742 242.737 85.644 242.55 85.644C242.354 85.644 242.102 85.812 241.794 86.148C241.495 86.4747 241.225 86.8853 240.982 87.38C240.739 87.8653 240.595 88.3227 240.548 88.752C240.483 89.3773 240.45 89.872 240.45 90.236C240.45 91.0293 240.637 91.426 241.01 91.426ZM246.758 92.14C246.459 92.14 246.226 92.0933 246.058 92C245.89 91.8973 245.755 91.7433 245.652 91.538C245.456 91.174 245.358 90.7353 245.358 90.222C245.358 89.326 245.493 88.4767 245.764 87.674C246.035 86.862 246.403 86.1807 246.87 85.63C247.318 85.1073 247.808 84.846 248.34 84.846C248.62 84.846 248.839 84.9627 248.998 85.196C249.166 85.42 249.25 85.6953 249.25 86.022C249.25 86.5913 249.101 87.086 248.802 87.506C248.513 87.926 248.121 88.276 247.626 88.556C247.197 88.808 246.674 89.06 246.058 89.312L246.03 90.32C246.03 91.104 246.268 91.496 246.744 91.496C246.94 91.496 247.127 91.4587 247.304 91.384C247.491 91.3093 247.691 91.2067 247.906 91.076C248.158 90.9267 248.335 90.852 248.438 90.852C248.597 90.852 248.676 90.936 248.676 91.104C248.676 91.2253 248.559 91.37 248.326 91.538C248.102 91.706 247.836 91.8507 247.528 91.972C247.22 92.084 246.963 92.14 246.758 92.14ZM246.17 88.64C246.795 88.388 247.271 88.164 247.598 87.968C247.925 87.772 248.172 87.5247 248.34 87.226C248.517 86.9273 248.606 86.5353 248.606 86.05C248.606 85.686 248.452 85.504 248.144 85.504C247.873 85.504 247.556 85.7513 247.192 86.246C246.809 86.7407 246.501 87.3893 246.268 88.192C246.203 88.416 246.17 88.5653 246.17 88.64ZM247.066 83.544C246.954 83.544 246.861 83.474 246.786 83.334C246.711 83.1847 246.674 83.0353 246.674 82.886C246.674 82.6993 246.739 82.5127 246.87 82.326C246.982 82.1673 247.131 82.088 247.318 82.088C247.421 82.088 247.528 82.144 247.64 82.256V82.242C247.789 82.4193 247.864 82.578 247.864 82.718C247.864 82.858 247.761 83.0307 247.556 83.236C247.351 83.4413 247.187 83.544 247.066 83.544ZM249.18 83.432C248.956 83.3573 248.844 83.2033 248.844 82.97C248.844 82.7647 248.923 82.578 249.082 82.41C249.25 82.2327 249.404 82.144 249.544 82.144C249.843 82.144 249.992 82.2887 249.992 82.578C249.992 82.7833 249.917 82.984 249.768 83.18C249.619 83.3667 249.46 83.46 249.292 83.46L249.18 83.432ZM250.555 90.964C250.555 90.8427 250.588 90.7587 250.653 90.712C250.718 90.6653 250.802 90.6327 250.905 90.614C250.989 90.614 251.054 90.642 251.101 90.698C251.157 90.754 251.222 90.8427 251.297 90.964C251.372 91.0947 251.432 91.188 251.479 91.244C251.535 91.2907 251.628 91.314 251.759 91.314C252.058 91.314 252.3 91.2207 252.487 91.034C252.683 90.8473 252.781 90.628 252.781 90.376C252.781 90.1053 252.725 89.8207 252.613 89.522C252.501 89.2233 252.328 88.85 252.095 88.402C251.628 87.562 251.395 86.8947 251.395 86.4C251.395 85.9053 251.516 85.5087 251.759 85.21C252.011 84.9113 252.352 84.762 252.781 84.762C253.08 84.762 253.364 84.846 253.635 85.014C253.906 85.182 254.041 85.392 254.041 85.644C254.041 85.9147 253.929 86.05 253.705 86.05C253.64 86.05 253.584 86.0313 253.537 85.994C253.5 85.9567 253.462 85.9147 253.425 85.868C253.388 85.812 253.36 85.7747 253.341 85.756C253.173 85.56 252.986 85.462 252.781 85.462C252.324 85.462 252.095 85.728 252.095 86.26C252.095 86.5493 252.151 86.8433 252.263 87.142C252.375 87.4407 252.543 87.8187 252.767 88.276C252.982 88.724 253.145 89.0973 253.257 89.396C253.369 89.6947 253.425 89.9793 253.425 90.25C253.425 90.726 253.28 91.1273 252.991 91.454C252.702 91.7807 252.296 91.9767 251.773 92.042C251.446 92.042 251.162 91.93 250.919 91.706C250.676 91.4727 250.555 91.2253 250.555 90.964ZM255.953 92.112C255.795 92.112 255.715 92.0327 255.715 91.874C255.715 91.7433 256.173 89.5733 257.087 85.364C257.349 84.104 257.605 82.83 257.857 81.542C258.119 80.2447 258.31 79.2973 258.431 78.7C258.478 78.56 258.557 78.49 258.669 78.49C258.912 78.49 259.061 78.6067 259.117 78.84C258.987 79.512 258.777 80.548 258.487 81.948C258.198 83.3387 257.951 84.5193 257.745 85.49L257.213 87.94C258.165 85.98 259.066 85 259.915 85C260.242 85 260.494 85.1307 260.671 85.392C260.849 85.644 260.937 85.9473 260.937 86.302C260.937 86.6473 260.877 87.1047 260.755 87.674L260.531 88.85C260.27 90.2033 260.139 90.9733 260.139 91.16L260.167 91.706C260.167 91.8273 260.125 91.9253 260.041 92C259.967 92.0653 259.864 92.098 259.733 92.098C259.612 92.098 259.519 92.0607 259.453 91.986C259.388 91.902 259.355 91.79 259.355 91.65C259.355 91.566 259.36 91.5007 259.369 91.454L260.181 86.904C260.209 86.764 260.223 86.596 260.223 86.4C260.223 85.9333 260.093 85.7 259.831 85.7C259.533 85.7 259.178 85.9613 258.767 86.484C258.357 86.9973 257.969 87.5807 257.605 88.234C257.251 88.8873 257.027 89.354 256.933 89.634C256.821 89.97 256.714 90.348 256.611 90.768C256.509 91.1787 256.457 91.44 256.457 91.552C256.467 91.7853 256.443 91.9347 256.387 92C256.331 92.0747 256.187 92.112 255.953 92.112ZM264.21 92.056C263.884 92.056 263.636 91.972 263.468 91.804C263.31 91.636 263.23 91.3327 263.23 90.894C263.23 90.6513 263.258 90.3713 263.314 90.054L263.44 89.256L263.594 88.598L263.678 88.22L263.86 87.45C263.879 87.3287 263.921 87.1327 263.986 86.862L264.056 86.582L264.182 85.98L264.266 85.56C263.902 85.56 263.566 85.5833 263.258 85.63C263.072 85.602 262.978 85.5227 262.978 85.392C262.978 85.2987 263.016 85.21 263.09 85.126C263.165 85.042 263.254 84.9953 263.356 84.986L264.364 85.014C264.364 85.014 264.388 84.8973 264.434 84.664C264.453 84.4773 264.49 84.2627 264.546 84.02C264.602 83.7773 264.672 83.5627 264.756 83.376C264.84 83.1707 264.962 83.068 265.12 83.068C265.27 83.068 265.344 83.152 265.344 83.32V83.404C265.307 83.5907 265.274 83.726 265.246 83.81L265.008 85H266.016C266.371 85 266.59 85.028 266.674 85.084C266.749 85.14 266.786 85.21 266.786 85.294C266.786 85.4433 266.716 85.5413 266.576 85.588C266.446 85.6253 266.217 85.644 265.89 85.644C265.592 85.644 265.26 85.63 264.896 85.602C264.84 85.91 264.649 86.764 264.322 88.164C264.024 89.4333 263.874 90.236 263.874 90.572C263.874 90.936 263.916 91.174 264 91.286C264.047 91.3607 264.145 91.398 264.294 91.398C264.425 91.398 264.537 91.3653 264.63 91.3C264.733 91.2253 264.836 91.1273 264.938 91.006C265.041 90.8753 265.13 90.7773 265.204 90.712C265.279 90.6467 265.358 90.614 265.442 90.614C265.629 90.614 265.722 90.7073 265.722 90.894C265.722 90.9873 265.629 91.1413 265.442 91.356C265.256 91.5707 265.078 91.7433 264.91 91.874C264.761 91.9953 264.528 92.056 264.21 92.056ZM269.396 92.14C269.097 92.14 268.864 92.0933 268.696 92C268.528 91.8973 268.393 91.7433 268.29 91.538C268.094 91.174 267.996 90.7353 267.996 90.222C267.996 89.326 268.131 88.4767 268.402 87.674C268.673 86.862 269.041 86.1807 269.508 85.63C269.956 85.1073 270.446 84.846 270.978 84.846C271.258 84.846 271.477 84.9627 271.636 85.196C271.804 85.42 271.888 85.6953 271.888 86.022C271.888 86.5913 271.739 87.086 271.44 87.506C271.151 87.926 270.759 88.276 270.264 88.556C269.835 88.808 269.312 89.06 268.696 89.312L268.668 90.32C268.668 91.104 268.906 91.496 269.382 91.496C269.578 91.496 269.765 91.4587 269.942 91.384C270.129 91.3093 270.329 91.2067 270.544 91.076C270.796 90.9267 270.973 90.852 271.076 90.852C271.235 90.852 271.314 90.936 271.314 91.104C271.314 91.2253 271.197 91.37 270.964 91.538C270.74 91.706 270.474 91.8507 270.166 91.972C269.858 92.084 269.601 92.14 269.396 92.14ZM268.808 88.64C269.433 88.388 269.909 88.164 270.236 87.968C270.563 87.772 270.81 87.5247 270.978 87.226C271.155 86.9273 271.244 86.5353 271.244 86.05C271.244 85.686 271.09 85.504 270.782 85.504C270.511 85.504 270.194 85.7513 269.83 86.246C269.447 86.7407 269.139 87.3893 268.906 88.192C268.841 88.416 268.808 88.5653 268.808 88.64ZM274.579 92.056C274.252 92.056 274.005 91.972 273.837 91.804C273.678 91.636 273.599 91.3327 273.599 90.894C273.599 90.6513 273.627 90.3713 273.683 90.054L273.809 89.256L273.963 88.598L274.047 88.22L274.229 87.45C274.248 87.3287 274.29 87.1327 274.355 86.862L274.425 86.582L274.551 85.98L274.635 85.56C274.271 85.56 273.935 85.5833 273.627 85.63C273.44 85.602 273.347 85.5227 273.347 85.392C273.347 85.2987 273.384 85.21 273.459 85.126C273.534 85.042 273.622 84.9953 273.725 84.986L274.733 85.014C274.733 85.014 274.756 84.8973 274.803 84.664C274.822 84.4773 274.859 84.2627 274.915 84.02C274.971 83.7773 275.041 83.5627 275.125 83.376C275.209 83.1707 275.33 83.068 275.489 83.068C275.638 83.068 275.713 83.152 275.713 83.32V83.404C275.676 83.5907 275.643 83.726 275.615 83.81L275.377 85H276.385C276.74 85 276.959 85.028 277.043 85.084C277.118 85.14 277.155 85.21 277.155 85.294C277.155 85.4433 277.085 85.5413 276.945 85.588C276.814 85.6253 276.586 85.644 276.259 85.644C275.96 85.644 275.629 85.63 275.265 85.602C275.209 85.91 275.018 86.764 274.691 88.164C274.392 89.4333 274.243 90.236 274.243 90.572C274.243 90.936 274.285 91.174 274.369 91.286C274.416 91.3607 274.514 91.398 274.663 91.398C274.794 91.398 274.906 91.3653 274.999 91.3C275.102 91.2253 275.204 91.1273 275.307 91.006C275.41 90.8753 275.498 90.7773 275.573 90.712C275.648 90.6467 275.727 90.614 275.811 90.614C275.998 90.614 276.091 90.7073 276.091 90.894C276.091 90.9873 275.998 91.1413 275.811 91.356C275.624 91.5707 275.447 91.7433 275.279 91.874C275.13 91.9953 274.896 92.056 274.579 92.056ZM274.641 97.796C274.127 97.796 273.707 97.7073 273.381 97.53C273.278 97.474 273.227 97.404 273.227 97.32C273.227 97.236 273.264 97.152 273.339 97.068C273.404 96.984 273.483 96.9327 273.577 96.914C273.894 97.0353 274.291 97.096 274.767 97.096C275.784 97.096 276.605 96.536 277.231 95.416C277.856 94.296 278.318 93.0127 278.617 91.566C278.915 90.11 279.195 88.3647 279.457 86.33C279.485 86.0873 279.508 85.8727 279.527 85.686C279.555 85.4993 279.578 85.3407 279.597 85.21C279.625 85.1073 279.676 85.028 279.751 84.972C279.825 84.916 279.905 84.888 279.989 84.888C280.147 84.888 280.227 84.972 280.227 85.14L279.933 87.24C279.41 90.8893 278.929 93.3907 278.491 94.744C278.136 95.8453 277.637 96.6293 276.993 97.096C276.339 97.5627 275.555 97.796 274.641 97.796ZM280.157 83.684C280.007 83.684 279.895 83.6653 279.821 83.628H279.765C279.494 83.628 279.359 83.4693 279.359 83.152C279.359 82.9933 279.424 82.8487 279.555 82.718C279.695 82.5873 279.844 82.522 280.003 82.522C280.161 82.522 280.311 82.578 280.451 82.69C280.609 82.8487 280.689 83.0027 280.689 83.152C280.689 83.292 280.633 83.418 280.521 83.53C280.418 83.6327 280.297 83.684 280.157 83.684ZM283.281 92.14C282.982 92.14 282.749 92.0933 282.581 92C282.413 91.8973 282.278 91.7433 282.175 91.538C281.979 91.174 281.881 90.7353 281.881 90.222C281.881 89.326 282.016 88.4767 282.287 87.674C282.558 86.862 282.926 86.1807 283.393 85.63C283.841 85.1073 284.331 84.846 284.863 84.846C285.143 84.846 285.362 84.9627 285.521 85.196C285.689 85.42 285.773 85.6953 285.773 86.022C285.773 86.5913 285.624 87.086 285.325 87.506C285.036 87.926 284.644 88.276 284.149 88.556C283.72 88.808 283.197 89.06 282.581 89.312L282.553 90.32C282.553 91.104 282.791 91.496 283.267 91.496C283.463 91.496 283.65 91.4587 283.827 91.384C284.014 91.3093 284.214 91.2067 284.429 91.076C284.681 90.9267 284.858 90.852 284.961 90.852C285.12 90.852 285.199 90.936 285.199 91.104C285.199 91.2253 285.082 91.37 284.849 91.538C284.625 91.706 284.359 91.8507 284.051 91.972C283.743 92.084 283.486 92.14 283.281 92.14ZM282.693 88.64C283.318 88.388 283.794 88.164 284.121 87.968C284.448 87.772 284.695 87.5247 284.863 87.226C285.04 86.9273 285.129 86.5353 285.129 86.05C285.129 85.686 284.975 85.504 284.667 85.504C284.396 85.504 284.079 85.7513 283.715 86.246C283.332 86.7407 283.024 87.3893 282.791 88.192C282.726 88.416 282.693 88.5653 282.693 88.64ZM291.012 92.084C290.863 92.084 290.756 92.056 290.69 92C290.625 91.944 290.602 91.846 290.62 91.706L291.306 87.618C291.39 87.114 291.432 86.7267 291.432 86.456C291.432 86.008 291.306 85.784 291.054 85.784C290.746 85.784 290.322 86.3207 289.78 87.394C289.248 88.458 288.698 89.662 288.128 91.006L287.932 91.454C287.764 91.818 287.596 92 287.428 92C287.335 92 287.274 91.9813 287.246 91.944C287.228 91.8973 287.218 91.804 287.218 91.664C287.218 91.524 287.4 90.446 287.764 88.43C288.138 86.414 288.352 85.3547 288.408 85.252C288.464 85.14 288.511 85.07 288.548 85.042C288.595 85.014 288.679 85 288.8 85C288.912 85 289.001 85.042 289.066 85.126C289.141 85.21 289.178 85.294 289.178 85.378C289.178 85.434 289.132 85.616 289.038 85.924C288.758 86.876 288.539 87.8 288.38 88.696L288.24 89.522C288.399 89.186 288.516 88.9247 288.59 88.738C288.852 88.1313 289.09 87.5993 289.304 87.142C289.528 86.6847 289.776 86.26 290.046 85.868C290.457 85.28 290.84 84.986 291.194 84.986C291.82 84.986 292.132 85.49 292.132 86.498C292.132 86.7127 292.104 86.988 292.048 87.324C291.992 87.66 291.932 88.0053 291.866 88.36C291.736 89.0413 291.652 89.508 291.614 89.76L291.516 90.404C291.432 90.9827 291.358 91.4073 291.292 91.678C291.227 91.9487 291.134 92.084 291.012 92.084ZM299.805 92.14C299.506 92.14 299.273 92.0933 299.105 92C298.937 91.8973 298.802 91.7433 298.699 91.538C298.503 91.174 298.405 90.7353 298.405 90.222C298.405 89.326 298.54 88.4767 298.811 87.674C299.082 86.862 299.45 86.1807 299.917 85.63C300.365 85.1073 300.855 84.846 301.387 84.846C301.667 84.846 301.886 84.9627 302.045 85.196C302.213 85.42 302.297 85.6953 302.297 86.022C302.297 86.5913 302.148 87.086 301.849 87.506C301.56 87.926 301.168 88.276 300.673 88.556C300.244 88.808 299.721 89.06 299.105 89.312L299.077 90.32C299.077 91.104 299.315 91.496 299.791 91.496C299.987 91.496 300.174 91.4587 300.351 91.384C300.538 91.3093 300.738 91.2067 300.953 91.076C301.205 90.9267 301.382 90.852 301.485 90.852C301.644 90.852 301.723 90.936 301.723 91.104C301.723 91.2253 301.606 91.37 301.373 91.538C301.149 91.706 300.883 91.8507 300.575 91.972C300.267 92.084 300.01 92.14 299.805 92.14ZM299.217 88.64C299.842 88.388 300.318 88.164 300.645 87.968C300.972 87.772 301.219 87.5247 301.387 87.226C301.564 86.9273 301.653 86.5353 301.653 86.05C301.653 85.686 301.499 85.504 301.191 85.504C300.92 85.504 300.603 85.7513 300.239 86.246C299.856 86.7407 299.548 87.3893 299.315 88.192C299.25 88.416 299.217 88.5653 299.217 88.64ZM314.071 92.154C313.903 92.154 313.758 92.0047 313.637 91.706C313.515 91.4073 313.394 91.0013 313.273 90.488L313.007 89.48C311.709 84.5147 310.911 81.4113 310.613 80.17C310.351 81.3647 310.137 82.3867 309.969 83.236C309.138 87.1933 308.513 90.068 308.093 91.86C308.046 92.0467 307.925 92.14 307.729 92.14C307.533 92.14 307.435 92.056 307.435 91.888C307.435 91.804 307.593 91.1227 307.911 89.844C308.041 89.312 308.489 87.2167 309.255 83.558C309.927 80.3007 310.281 78.6393 310.319 78.574C310.347 78.4807 310.417 78.434 310.529 78.434C310.631 78.434 310.711 78.4667 310.767 78.532C310.823 78.5973 310.869 78.7093 310.907 78.868C311.056 79.5867 311.513 81.4347 312.279 84.412C313.053 87.38 313.637 89.55 314.029 90.922C314.234 89.7647 314.668 87.4547 315.331 83.992L316.311 78.742C316.348 78.6487 316.413 78.5693 316.507 78.504C316.609 78.4387 316.707 78.406 316.801 78.406C316.866 78.406 316.903 78.4247 316.913 78.462C316.931 78.49 316.941 78.5367 316.941 78.602C316.941 78.6673 316.941 78.714 316.941 78.742C316.549 80.674 316.133 82.816 315.695 85.168C315.256 87.52 314.897 89.5267 314.617 91.188C314.598 91.2627 314.57 91.398 314.533 91.594C314.495 91.79 314.439 91.93 314.365 92.014C314.299 92.1073 314.201 92.154 314.071 92.154ZM319.173 92.14C318.874 92.14 318.641 92.0933 318.473 92C318.305 91.8973 318.169 91.7433 318.067 91.538C317.871 91.174 317.773 90.7353 317.773 90.222C317.773 89.326 317.908 88.4767 318.179 87.674C318.449 86.862 318.818 86.1807 319.285 85.63C319.733 85.1073 320.223 84.846 320.755 84.846C321.035 84.846 321.254 84.9627 321.413 85.196C321.581 85.42 321.665 85.6953 321.665 86.022C321.665 86.5913 321.515 87.086 321.217 87.506C320.927 87.926 320.535 88.276 320.041 88.556C319.611 88.808 319.089 89.06 318.473 89.312L318.445 90.32C318.445 91.104 318.683 91.496 319.159 91.496C319.355 91.496 319.541 91.4587 319.719 91.384C319.905 91.3093 320.106 91.2067 320.321 91.076C320.573 90.9267 320.75 90.852 320.853 90.852C321.011 90.852 321.091 90.936 321.091 91.104C321.091 91.2253 320.974 91.37 320.741 91.538C320.517 91.706 320.251 91.8507 319.943 91.972C319.635 92.084 319.378 92.14 319.173 92.14ZM318.585 88.64C319.21 88.388 319.686 88.164 320.013 87.968C320.339 87.772 320.587 87.5247 320.755 87.226C320.932 86.9273 321.021 86.5353 321.021 86.05C321.021 85.686 320.867 85.504 320.559 85.504C320.288 85.504 319.971 85.7513 319.607 86.246C319.224 86.7407 318.916 87.3893 318.683 88.192C318.617 88.416 318.585 88.5653 318.585 88.64ZM319.481 83.544C319.369 83.544 319.275 83.474 319.201 83.334C319.126 83.1847 319.089 83.0353 319.089 82.886C319.089 82.6993 319.154 82.5127 319.285 82.326C319.397 82.1673 319.546 82.088 319.733 82.088C319.835 82.088 319.943 82.144 320.055 82.256V82.242C320.204 82.4193 320.279 82.578 320.279 82.718C320.279 82.858 320.176 83.0307 319.971 83.236C319.765 83.4413 319.602 83.544 319.481 83.544ZM321.595 83.432C321.371 83.3573 321.259 83.2033 321.259 82.97C321.259 82.7647 321.338 82.578 321.497 82.41C321.665 82.2327 321.819 82.144 321.959 82.144C322.257 82.144 322.407 82.2887 322.407 82.578C322.407 82.7833 322.332 82.984 322.183 83.18C322.033 83.3667 321.875 83.46 321.707 83.46L321.595 83.432ZM326.904 92.084C326.754 92.084 326.647 92.056 326.582 92C326.516 91.944 326.493 91.846 326.512 91.706L327.198 87.618C327.282 87.114 327.324 86.7267 327.324 86.456C327.324 86.008 327.198 85.784 326.946 85.784C326.638 85.784 326.213 86.3207 325.672 87.394C325.14 88.458 324.589 89.662 324.02 91.006L323.824 91.454C323.656 91.818 323.488 92 323.32 92C323.226 92 323.166 91.9813 323.138 91.944C323.119 91.8973 323.11 91.804 323.11 91.664C323.11 91.524 323.292 90.446 323.656 88.43C324.029 86.414 324.244 85.3547 324.3 85.252C324.356 85.14 324.402 85.07 324.44 85.042C324.486 85.014 324.57 85 324.692 85C324.804 85 324.892 85.042 324.958 85.126C325.032 85.21 325.07 85.294 325.07 85.378C325.07 85.434 325.023 85.616 324.93 85.924C324.65 86.876 324.43 87.8 324.272 88.696L324.132 89.522C324.29 89.186 324.407 88.9247 324.482 88.738C324.743 88.1313 324.981 87.5993 325.196 87.142C325.42 86.6847 325.667 86.26 325.938 85.868C326.348 85.28 326.731 84.986 327.086 84.986C327.711 84.986 328.024 85.49 328.024 86.498C328.024 86.7127 327.996 86.988 327.94 87.324C327.884 87.66 327.823 88.0053 327.758 88.36C327.627 89.0413 327.543 89.508 327.506 89.76L327.408 90.404C327.324 90.9827 327.249 91.4073 327.184 91.678C327.118 91.9487 327.025 92.084 326.904 92.084ZM334.468 92.028C334.253 92.028 334.052 91.916 333.866 91.692C333.688 91.4587 333.6 91.2113 333.6 90.95C333.6 90.3713 333.754 89.3913 334.062 88.01C333.828 88.514 333.525 89.032 333.152 89.564C332.788 90.0867 332.428 90.5487 332.074 90.95C331.719 91.3513 331.458 91.6127 331.29 91.734C331.056 91.9113 330.8 92 330.52 92C329.988 92 329.722 91.664 329.722 90.992C329.722 90.3387 329.969 89.5267 330.464 88.556C330.958 87.576 331.546 86.7267 332.228 86.008C332.909 85.2987 333.46 84.944 333.88 84.944C334.309 84.944 334.552 85.1307 334.608 85.504C334.636 85.616 334.65 85.7373 334.65 85.868C334.696 85.84 334.748 85.826 334.804 85.826C335.018 85.826 335.126 85.9287 335.126 86.134V86.19L334.958 86.806C334.827 87.2727 334.692 87.9633 334.552 88.878C334.412 89.7927 334.342 90.5533 334.342 91.16L334.482 91.244C334.706 91.384 334.818 91.524 334.818 91.664C334.818 91.7573 334.785 91.8413 334.72 91.916C334.654 91.9907 334.57 92.028 334.468 92.028ZM330.632 91.272C330.734 91.272 330.818 91.2393 330.884 91.174C331.836 90.362 332.68 89.2373 333.418 87.8C333.735 87.2027 333.931 86.8107 334.006 86.624C334.09 86.4373 334.132 86.2553 334.132 86.078C334.132 85.9847 334.108 85.9007 334.062 85.826C334.015 85.7513 333.954 85.714 333.88 85.714C333.786 85.714 333.665 85.756 333.516 85.84C333.142 86.036 332.699 86.4513 332.186 87.086C331.682 87.7207 331.266 88.3927 330.94 89.102C330.594 89.8207 330.422 90.46 330.422 91.02C330.422 91.188 330.492 91.272 330.632 91.272ZM338.279 92.042C338.045 92.042 337.915 91.944 337.887 91.748C337.728 90.6747 337.597 89.6153 337.495 88.57C337.345 87.31 337.201 86.148 337.061 85.084C337.089 85 337.14 84.9253 337.215 84.86C337.299 84.7853 337.373 84.748 337.439 84.748C337.569 84.748 337.658 84.8273 337.705 84.986C337.807 85.9567 337.919 86.9133 338.041 87.856C338.153 88.6493 338.283 89.704 338.433 91.02C339.189 89.8347 339.753 88.78 340.127 87.856C340.5 86.932 340.687 86.008 340.687 85.084C340.687 84.104 340.397 83.502 339.819 83.278C339.651 83.2127 339.501 83.1753 339.371 83.166C339.231 83.1473 339.133 83.124 339.077 83.096C339.03 83.0587 339.007 83.0027 339.007 82.928C339.007 82.732 339.137 82.6153 339.399 82.578C340.696 82.6713 341.345 83.4693 341.345 84.972C341.345 86.4747 340.831 88.15 339.805 89.998C339.459 90.6233 339.077 91.2113 338.657 91.762C338.517 91.9487 338.391 92.042 338.279 92.042ZM343.834 92.14C343.535 92.14 343.302 92.0933 343.134 92C342.966 91.8973 342.831 91.7433 342.728 91.538C342.532 91.174 342.434 90.7353 342.434 90.222C342.434 89.326 342.569 88.4767 342.84 87.674C343.111 86.862 343.479 86.1807 343.946 85.63C344.394 85.1073 344.884 84.846 345.416 84.846C345.696 84.846 345.915 84.9627 346.074 85.196C346.242 85.42 346.326 85.6953 346.326 86.022C346.326 86.5913 346.177 87.086 345.878 87.506C345.589 87.926 345.197 88.276 344.702 88.556C344.273 88.808 343.75 89.06 343.134 89.312L343.106 90.32C343.106 91.104 343.344 91.496 343.82 91.496C344.016 91.496 344.203 91.4587 344.38 91.384C344.567 91.3093 344.767 91.2067 344.982 91.076C345.234 90.9267 345.411 90.852 345.514 90.852C345.673 90.852 345.752 90.936 345.752 91.104C345.752 91.2253 345.635 91.37 345.402 91.538C345.178 91.706 344.912 91.8507 344.604 91.972C344.296 92.084 344.039 92.14 343.834 92.14ZM343.246 88.64C343.871 88.388 344.347 88.164 344.674 87.968C345.001 87.772 345.248 87.5247 345.416 87.226C345.593 86.9273 345.682 86.5353 345.682 86.05C345.682 85.686 345.528 85.504 345.22 85.504C344.949 85.504 344.632 85.7513 344.268 86.246C343.885 86.7407 343.577 87.3893 343.344 88.192C343.279 88.416 343.246 88.5653 343.246 88.64Z" fill="black" fill-opacity="0.96"/>
<defs>
<filter id="filter0_ddd_330_237" x="38.2063" y="32.3042" width="51.2207" height="64.1147" filterUnits="userSpaceOnUse" color-interpolation-filters="sRGB">
<feFlood flood-opacity="0" result="BackgroundImageFix"/>
<feColorMatrix in="SourceAlpha" type="matrix" values="0 0 0 0 0 0 0 0 0 0 0 0 0 0 0 0 0 0 127 0" result="hardAlpha"/>
<feOffset dx="0.411712" dy="0.823425"/>
<feGaussianBlur stdDeviation="1.02928"/>
<feComposite in2="hardAlpha" operator="out"/>
<feColorMatrix type="matrix" values="0 0 0 0 0.936 0 0 0 0 0.024 0 0 0 0 0.195383 0 0 0 1 0"/>
<feBlend mode="normal" in2="BackgroundImageFix" result="effect1_dropShadow_330_237"/>
<feColorMatrix in="SourceAlpha" type="matrix" values="0 0 0 0 0 0 0 0 0 0 0 0 0 0 0 0 0 0 127 0" result="hardAlpha"/>
<feOffset dx="0.205856" dy="0.411712"/>
<feGaussianBlur stdDeviation="0.617569"/>
<feComposite in2="hardAlpha" operator="out"/>
<feColorMatrix type="matrix" values="0 0 0 0 0 0 0 0 0 0 0 0 0 0 0 0 0 0 0.3 0"/>
<feBlend mode="normal" in2="effect1_dropShadow_330_237" result="effect2_dropShadow_330_237"/>
<feColorMatrix in="SourceAlpha" type="matrix" values="0 0 0 0 0 0 0 0 0 0 0 0 0 0 0 0 0 0 127 0" result="hardAlpha"/>
<feOffset dx="1.0979" dy="2.1958"/>
<feGaussianBlur stdDeviation="2.1958"/>
<feComposite in2="hardAlpha" operator="out"/>
<feColorMatrix type="matrix" values="0 0 0 0 0.937255 0 0 0 0 0.352941 0 0 0 0 0.462745 0 0 0 1 0"/>
<feBlend mode="normal" in2="effect2_dropShadow_330_237" result="effect3_dropShadow_330_237"/>
<feBlend mode="normal" in="SourceGraphic" in2="effect3_dropShadow_330_237" result="shape"/>
</filter>
<linearGradient id="paint0_linear_330_237" x1="293.111" y1="76.122" x2="291.262" y2="15.8578" gradientUnits="userSpaceOnUse">
<stop stop-color="#FF244C"/>
<stop offset="1" stop-color="#FFAEBE"/>
</linearGradient>
</defs>
</svg>
